<svg width="20" height="25" viewBox="0 0 20 25" fill="none" xmlns="http://www.w3.org/2000/svg">
<g clip-path="url(#clip0_290_360)">
<path d="M17 7.5C17 5.01472 14.9853 3 12.5 3H1.5C0.671573 3 0 2.32843 0 1.5V1.5C0 0.671573 0.671573 0 1.5 0H12.5C16.6421 0 20 3.35786 20 7.5V7.5C20 11.6421 16.6421 15 12.5 15H9V18.5C9 19.3284 8.32843 20 7.5 20V20C6.67157 20 6 19.3284 6 18.5V15.1429C6 14.0766 6 13.5435 6.19806 13.1322C6.39465 12.724 6.72402 12.3946 7.13223 12.1981C7.54351 12 8.07663 12 9.14286 12H12.5C14.9853 12 17 9.98528 17 7.5V7.5V7.5Z" fill="#EF1C22"/>
<path d="M0 9.2C0 8.0799 0 7.51984 0.217987 7.09202C0.409734 6.71569 0.715695 6.40973 1.09202 6.21799C1.51984 6 2.07989 6 3.2 6H12.5C13.3284 6 14 6.67157 14 7.5V7.5C14 8.32843 13.3284 9 12.5 9H3V23.5C3 24.3284 2.32843 25 1.5 25V25C0.671573 25 0 24.3284 0 23.5V9.2Z" fill="#EF1C22"/>
</g>
<defs>
<clipPath id="clip0_290_360">
<rect width="20" height="25" fill="white"/>
</clipPath>
</defs>
</svg>
